.
..............................Site Info...........................

 -   http://www.scenetime.com  *_*   

Scenetime .Always on time . friendly online private torrent community ..

     We care to share . Join us on  http://www.scenetime.com 

    Be the first to get new release at  http://www.scenetime.com

        Seed back for speed


...................................NFO:.................................................Silent House 2012 CAM READNFO XviD - ILLUMINATI


Video
ID                                       : 0
Format                                   : MPEG-4 Visual
Format profile                           : Advanced Simple@L5
Format settings, BVOP                    : 2
Format settings, QPel                    : No
Format settings, GMC                     : No warppoints
Format settings, Matrix                  : Default (H.263)
Muxing mode                              : Packed bitstream
Codec ID                                 : XVID
Codec ID/Hint                            : XviD
Duration                                 : 1h 20mn
Bit rate                                 : 711 Kbps
Width                                    : 640 pixels
Height                                   : 304 pixels
Display aspect ratio                     : 2.2:1
Frame rate                               : 15.000 fps
Color space                              : YUV
Chroma subsampling                       : 4:2:0
Bit depth                                : 8 bits
Scan type                                : Progressive
Compression mode                         : Lossy
Bits/(Pixel*Frame)                       : 0.244
Stream size                              : 411 MiB (84%)
Writing library                          : XviD 64

Audio
ID                                       : 1
Format                                   : MPEG Audio
Format version                           : Version 1
Format profile                           : Layer 3
Mode                                     : Joint stereo
Mode extension                           : MS Stereo
Codec ID                                 : 55
Codec ID/Hint                            : MP3
Duration                                 : 1h 20mn
Bit rate mode                            : Constant
Bit rate                                 : 128 Kbps
Channel(s)                               : 2 channels
Sampling rate                            : 44.1 KHz
Compression mode                         : Lossy
Stream size                              : 73.9 MiB (15%)
Alignment                                : Split accross interleaves
Interleave, duration                     : 67 ms (1.00 video frame)
Writing library                          : LAME3.99r



Sources - QUARTERPAST Thanks


Notes -
First off greets to QUARTERPAST, 
great work lately :D
nice cam here, watermark lasting 
from 5 seconds to 1 minute 
at 4 random areas blurred.
Whole film takes place at night so
its dark, but decent.

[IMG]http://i.imgur.com/eBccw.png[/IMG]
[IMG]http://i.imgur.com/nOBuJ.png[/IMG]
[IMG]http://i.imgur.com/Io9FF.png[/IMG]
[IMG]http://i.imgur.com/faMYp.png[/IMG]